<svg xmlns="http://www.w3.org/2000/svg" viewBox="0 0 24 24" fill="none">
  <path
    fill="#6364FF"
    d="M21.258 3.087c-.335-2.228-2.262-3.958-4.565-4.087C15.002-.037 12.35-.02 9.885.001 9.4.004 8.88.008 8.347.017 5.921.064 3.433.224 2.015 1.608.797 2.794.667 4.784.623 6.737L.623 17.737C.579 19.69.449 21.678 1.667 22.864c1.418 1.384 3.906 1.544 6.332 1.591.533.009 1.053.013 1.538.016 2.465.021 5.117.038 7.708-.999 2.303-.129 4.23-1.859 4.565-4.087.346-2.303.346-5.033.346-5.033s.021-2.73-.325-5.033zM17.5 8.5c0 1.933-1.567 3.5-3.5 3.5s-3.5-1.567-3.5-3.5S12.067 5 14 5s3.5 1.567 3.5 3.5z"
  />
</svg>
